<?xml version="1.0" encoding="us-ascii" standalone="no"?><svg xmlns="http://www.w3.org/2000/svg" xmlns:xlink="http://www.w3.org/1999/xlink" contentStyleType="text/css" height="526px" preserveAspectRatio="none" style="width:690px;height:526px;background:#FFFFFF;" version="1.1" viewBox="0 0 690 526" width="690px" zoomAndPan="magnify"><defs/><g><rect fill="#FFFFFF" height="335.7266" style="stroke:#181818;stroke-width:1.0;" width="10" x="18.5" y="91.4883"/><rect fill="#FFFFFF" height="87.9316" style="stroke:#181818;stroke-width:1.0;" width="10" x="320.5" y="112.7988"/><rect fill="#FFFFFF" height="87.9316" style="stroke:#181818;stroke-width:1.0;" width="10" x="320.5" y="339.2832"/><rect fill="#FFFFFF" height="29.3105" style="stroke:#181818;stroke-width:1.0;" width="10" x="630.5" y="142.1094"/><rect fill="#FFFFFF" height="79.9316" style="stroke:#181818;stroke-width:1.0;" width="10" x="630.5" y="230.041"/><rect fill="#FFFFFF" height="29.3105" style="stroke:#181818;stroke-width:1.0;" width="10" x="630.5" y="368.5938"/><line style="stroke:#181818;stroke-width:0.5;stroke-dasharray:5.0,5.0;" x1="23" x2="23" y1="81.4883" y2="445.2148"/><line style="stroke:#181818;stroke-width:0.5;stroke-dasharray:5.0,5.0;" x1="325.5" x2="325.5" y1="81.4883" y2="445.2148"/><line style="stroke:#181818;stroke-width:0.5;stroke-dasharray:5.0,5.0;" x1="635.5" x2="635.5" y1="81.4883" y2="445.2148"/><text fill="#000000" font-family="sans-serif" font-size="14" lengthAdjust="spacing" textLength="31" x="5" y="78.5352">User</text><ellipse cx="23.5" cy="13.5" fill="#E2E2F0" rx="8" ry="8" style="stroke:#181818;stroke-width:0.5;"/><path d="M23.5,21.5 L23.5,48.5 M10.5,29.5 L36.5,29.5 M23.5,48.5 L10.5,63.5 M23.5,48.5 L36.5,63.5 " fill="none" style="stroke:#181818;stroke-width:0.5;"/><text fill="#000000" font-family="sans-serif" font-size="14" lengthAdjust="spacing" textLength="31" x="5" y="457.75">User</text><ellipse cx="23.5" cy="469.2031" fill="#E2E2F0" rx="8" ry="8" style="stroke:#181818;stroke-width:0.5;"/><path d="M23.5,477.2031 L23.5,504.2031 M10.5,485.2031 L36.5,485.2031 M23.5,504.2031 L10.5,519.2031 M23.5,504.2031 L36.5,519.2031 " fill="none" style="stroke:#181818;stroke-width:0.5;"/><rect fill="#E2E2F0" height="30.4883" rx="2.5" ry="2.5" style="stroke:#181818;stroke-width:0.5;" width="54" x="298.5" y="50"/><text fill="#000000" font-family="sans-serif" font-size="14" lengthAdjust="spacing" textLength="40" x="305.5" y="70.5352">Client</text><rect fill="#E2E2F0" height="30.4883" rx="2.5" ry="2.5" style="stroke:#181818;stroke-width:0.5;" width="54" x="298.5" y="444.2148"/><text fill="#000000" font-family="sans-serif" font-size="14" lengthAdjust="spacing" textLength="40" x="305.5" y="464.75">Client</text><rect fill="#E2E2F0" height="30.4883" rx="2.5" ry="2.5" style="stroke:#181818;stroke-width:0.5;" width="98" x="586.5" y="50"/><text fill="#000000" font-family="sans-serif" font-size="14" lengthAdjust="spacing" textLength="84" x="593.5" y="70.5352">Banklink API</text><rect fill="#E2E2F0" height="30.4883" rx="2.5" ry="2.5" style="stroke:#181818;stroke-width:0.5;" width="98" x="586.5" y="444.2148"/><text fill="#000000" font-family="sans-serif" font-size="14" lengthAdjust="spacing" textLength="84" x="593.5" y="464.75">Banklink API</text><rect fill="#FFFFFF" height="335.7266" style="stroke:#181818;stroke-width:1.0;" width="10" x="18.5" y="91.4883"/><rect fill="#FFFFFF" height="87.9316" style="stroke:#181818;stroke-width:1.0;" width="10" x="320.5" y="112.7988"/><rect fill="#FFFFFF" height="87.9316" style="stroke:#181818;stroke-width:1.0;" width="10" x="320.5" y="339.2832"/><rect fill="#FFFFFF" height="29.3105" style="stroke:#181818;stroke-width:1.0;" width="10" x="630.5" y="142.1094"/><rect fill="#FFFFFF" height="79.9316" style="stroke:#181818;stroke-width:1.0;" width="10" x="630.5" y="230.041"/><rect fill="#FFFFFF" height="29.3105" style="stroke:#181818;stroke-width:1.0;" width="10" x="630.5" y="368.5938"/><polygon fill="#181818" points="308.5,108.7988,318.5,112.7988,308.5,116.7988,312.5,112.7988" style="stroke:#181818;stroke-width:1.0;"/><line style="stroke:#181818;stroke-width:1.0;" x1="28.5" x2="314.5" y1="112.7988" y2="112.7988"/><text fill="#000000" font-family="sans-serif" font-size="13" lengthAdjust="spacing" textLength="208" x="35.5" y="108.0566">Action requiring user verification</text><polygon fill="#181818" points="618.5,138.1094,628.5,142.1094,618.5,146.1094,622.5,142.1094" style="stroke:#181818;stroke-width:1.0;"/><line style="stroke:#181818;stroke-width:1.0;" x1="330.5" x2="624.5" y1="142.1094" y2="142.1094"/><text fill="#000000" font-family="sans-serif" font-size="13" lengthAdjust="spacing" textLength="281" x="337.5" y="137.3672">Create verification resource with user details</text><polygon fill="#181818" points="341.5,167.4199,331.5,171.4199,341.5,175.4199,337.5,171.4199" style="stroke:#181818;stroke-width:1.0;"/><line style="stroke:#181818;stroke-width:1.0;" x1="335.5" x2="634.5" y1="171.4199" y2="171.4199"/><text fill="#000000" font-family="sans-serif" font-size="13" lengthAdjust="spacing" textLength="88" x="347.5" y="166.6777">Verification id</text><polygon fill="#181818" points="39.5,196.7305,29.5,200.7305,39.5,204.7305,35.5,200.7305" style="stroke:#181818;stroke-width:1.0;"/><line style="stroke:#181818;stroke-width:1.0;" x1="33.5" x2="324.5" y1="200.7305" y2="200.7305"/><text fill="#000000" font-family="sans-serif" font-size="13" lengthAdjust="spacing" textLength="260" x="45.5" y="195.9883">Redirect to Banklink API for authorization</text><polygon fill="#181818" points="618.5,226.041,628.5,230.041,618.5,234.041,622.5,230.041" style="stroke:#181818;stroke-width:1.0;"/><line style="stroke:#181818;stroke-width:1.0;" x1="28.5" x2="624.5" y1="230.041" y2="230.041"/><text fill="#000000" font-family="sans-serif" font-size="13" lengthAdjust="spacing" textLength="66" x="35.5" y="225.2988">Redirected</text><path d="M332,243.041 L332,283.041 L625,283.041 L625,253.041 L615,243.041 L332,243.041 " fill="#FEFFDD" style="stroke:#181818;stroke-width:0.5;"/><path d="M615,243.041 L615,253.041 L625,253.041 L615,243.041 " fill="#FEFFDD" style="stroke:#181818;stroke-width:0.5;"/><text fill="#000000" font-family="sans-serif" font-size="13" lengthAdjust="spacing" textLength="272" x="338" y="260.6094">Verification process, user can be redirected</text><text fill="#000000" font-family="sans-serif" font-size="13" lengthAdjust="spacing" textLength="83" x="338" y="275.9199">several times</text><polygon fill="#181818" points="39.5,305.9727,29.5,309.9727,39.5,313.9727,35.5,309.9727" style="stroke:#181818;stroke-width:1.0;"/><line style="stroke:#181818;stroke-width:1.0;" x1="33.5" x2="634.5" y1="309.9727" y2="309.9727"/><text fill="#000000" font-family="sans-serif" font-size="13" lengthAdjust="spacing" textLength="107" x="45.5" y="305.2305">Redirect to client</text><polygon fill="#181818" points="308.5,335.2832,318.5,339.2832,308.5,343.2832,312.5,339.2832" style="stroke:#181818;stroke-width:1.0;"/><line style="stroke:#181818;stroke-width:1.0;" x1="28.5" x2="314.5" y1="339.2832" y2="339.2832"/><text fill="#000000" font-family="sans-serif" font-size="13" lengthAdjust="spacing" textLength="66" x="35.5" y="334.541">Redirected</text><polygon fill="#181818" points="618.5,364.5938,628.5,368.5938,618.5,372.5938,622.5,368.5938" style="stroke:#181818;stroke-width:1.0;"/><line style="stroke:#181818;stroke-width:1.0;" x1="330.5" x2="624.5" y1="368.5938" y2="368.5938"/><text fill="#000000" font-family="sans-serif" font-size="13" lengthAdjust="spacing" textLength="165" x="337.5" y="363.8516">Request verification result</text><polygon fill="#181818" points="341.5,393.9043,331.5,397.9043,341.5,401.9043,337.5,397.9043" style="stroke:#181818;stroke-width:1.0;"/><line style="stroke:#181818;stroke-width:1.0;" x1="335.5" x2="634.5" y1="397.9043" y2="397.9043"/><text fill="#000000" font-family="sans-serif" font-size="13" lengthAdjust="spacing" textLength="112" x="347.5" y="393.1621">Verification result</text><polygon fill="#181818" points="34.5,423.2148,24.5,427.2148,34.5,431.2148,30.5,427.2148" style="stroke:#181818;stroke-width:1.0;"/><line style="stroke:#181818;stroke-width:1.0;" x1="28.5" x2="324.5" y1="427.2148" y2="427.2148"/><text fill="#000000" font-family="sans-serif" font-size="13" lengthAdjust="spacing" textLength="268" x="40.5" y="422.4727">Some response based of verification result</text><!--SRC=[bL7BKiCm3BpdApGvmm_am4pfYHjJ1kwgh51DKplOSfdXwx5T4foc7F39UgrsjKZgFBIlWNqB620s8teLaX6jGhiTXAsM2YqhZsYFWzWZR9wVIXsR1adbZCe91I32_GDG1vkKT1OyVqJnOjyXfbrmPY-z4EPQQfudAGK0b6UnWwtddAoR4r1mqHF3f-ZX0cPOKOPGHcSaB65A_F1ugq74bAhXg_QoE7QmOoEUIK4Tr4gXJzV2g0VdvMiYNw7G91n_CTWqArhMfU_0lOBhPwOBXgDtn27SNHGIMjXpqbv1vXSutGO7K3dnHJzRKz2RMVkL72gMDYlnar-tQIzzsIKpEUZAc3ZeFqoe1luquiMTikmmEXiOzXZOv9FTNhmmeWhYDm00]--></g></svg>